<svg xmlns="http://www.w3.org/2000/svg" viewBox="0 0 764.92825 1130.79178"><defs><style>.a{fill:#61cde9;}</style></defs><path class="a" d="M760.94694,183.81972V574.22343q0,95.26643-20.57735,158.92863-20.55663,63.68136-77.658,111.86264-49.15926,40.99851-114.20283,59.80622-65.064,18.82652-152.25628,18.8264-103.7255,0-178.61738-20.1873Q142.701,883.21586,95.46937,840.85633,48.19555,798.49659,26.06759,732.32048q-22.06531-66.1761-22.08628-158.097V183.81972a160.16673,160.16673,0,0,1,.83823-17.12517A55.02213,55.02213,0,0,0,17.93717,179.0942q22.6938,15.878,69.35983,15.83995h99.03168V583.0697q0,68.16069,16.84762,113.8283,16.91041,45.64847,59.88829,70.88281,42.93618,25.17759,120.32167,25.17747,106.80577,0,150.99905-51.2246,44.19354-51.20556,44.21451-155.33719V194.93415h88.219q46.64495,0,69.98857-15.83995,16.09315-10.88751,21.12219-26.68974A151.72747,151.72747,0,0,1,760.94694,183.81972Z"/><path class="a" d="M764.53739,66.42766a57.36857,57.36857,0,0,0,.39086-6.47159q0-26.82268-23.05011-43.36015Q718.87011-.00026,671.59643,0H92.07459Q47.25258,0,23.6369,16.08944,0,32.15958,0,59.95607a58.48228,58.48228,0,0,0,.37858,6.38539A60.44,60.44,0,0,0,0,73.153a58.43193,58.43193,0,0,0,.39648,6.54986A60.33987,60.33987,0,0,0,0,86.61748a57.77788,57.77788,0,0,0,.57323,8.17979A55.83791,55.83791,0,0,0,0,102.49743q0,16.84175,9.59714,29.44931a55.02067,55.02067,0,0,0,13.11763,12.39962q22.69379,15.87828,69.35982,15.84h198.9016V665.06268q0,44.35353,25.48092,66.30641,25.45983,21.91375,66.00714,21.93281,39.85553,0,65.043-21.69927,25.20851-21.68007,25.18753-66.53995V160.1864h198.9016q46.64493,0,69.98857-15.84,16.09314-10.88724,21.12219-26.68955a50.75139,50.75139,0,0,0,2.22106-15.15938,53.85352,53.85352,0,0,0-.59012-7.64159,56.828,56.828,0,0,0,.59012-8.23836,58.117,58.117,0,0,0-.40851-6.82688,57.363,57.363,0,0,0,.40851-6.6376A58.24476,58.24476,0,0,0,764.53739,66.42766Z"/><circle class="a" cx="382.46412" cy="1036.62962" r="94.16216"/></svg>