<?xml version="1.0" encoding="UTF-8"?>
<svg id="Calque_2" data-name="Calque 2" xmlns="http://www.w3.org/2000/svg" viewBox="0 0 146.18 137.29">
  <defs>
    <style>
      .cls-1 {
        fill: #fff;
      }
    </style>
  </defs>
  <g id="Calque_1-2" data-name="Calque 1">
    <g>
      <path class="cls-1" d="M104.39,87.72c2.81-4.08,5.44-8.02,8.2-11.87,.89-1.24,.92-2.18,.2-3.51-9.89-18.17-19.72-36.36-29.58-54.55-2.94-5.44-5.88-10.87-8.86-16.29-.31-.57-.89-1-1.34-1.5-.45,.49-1.02,.91-1.34,1.47-1.91,3.45-3.75,6.94-5.62,10.41-4.95,9.18-9.92,18.36-14.86,27.54-6.04,11.23-12.07,22.47-18.05,33.73-.26,.49-.19,1.38,.09,1.88,.81,1.46,1.77,2.83,2.72,4.21,1.91,2.78,3.85,5.54,5.91,8.48,10.44-18.27,20.76-36.32,31.25-54.67,10.5,18.34,20.84,36.41,31.29,54.66ZM23.32,137.23c5.02,0,9.62,.03,14.22-.04,.45,0,1.04-.55,1.3-.99,1.29-2.15,2.48-4.36,3.73-6.54,9.95-17.32,19.91-34.63,29.88-51.95,.17-.29,.4-.55,.7-.95,.38,.57,.68,.98,.93,1.41,1.76,3.01,3.51,6.02,5.25,9.03,5.78,10.02,11.55,20.04,17.31,30.07,3.54,6.16,7.09,12.32,10.57,18.52,.63,1.12,1.35,1.55,2.63,1.48,1.99-.12,4-.04,6-.04,2.13,0,4.25,0,6.9,0-16.61-29.42-33.02-58.51-49.44-87.59-.2,.02-.4,.04-.6,.07-16.41,29.07-32.81,58.14-49.4,87.53Zm4.27-52.33c-.38,.64-.7,1.14-.99,1.66-1.67,3.05-3.35,6.1-5,9.16-5.34,9.92-10.68,19.84-16.01,29.76-1.78,3.31-3.57,6.61-5.28,9.95-.66,1.3-.29,1.8,1.15,1.8,3.86,0,7.72-.03,11.58,.02,.85,.01,1.26-.34,1.63-1,1.64-2.97,3.31-5.92,4.96-8.88,5.35-9.57,10.68-19.15,16.05-28.7,.46-.82,.53-1.43-.05-2.26-2.43-3.46-4.78-6.98-7.17-10.47-.23-.33-.52-.62-.89-1.05Zm90.87-.05c-.32,.34-.53,.51-.68,.73-2.47,3.65-4.9,7.33-7.41,10.95-.46,.66-.44,1.09-.07,1.72,2.03,3.54,4.03,7.1,6.02,10.67,4.99,8.91,9.98,17.82,14.92,26.76,.63,1.15,1.31,1.65,2.69,1.6,3.16-.12,6.32-.06,9.48-.05,3.12,0,3.39-.43,1.9-3.16-7.62-14.04-15.24-28.08-22.86-42.12-1.28-2.35-2.62-4.67-3.99-7.12Zm-45.44,42.16c.83-1.42,1.44-2.49,2.07-3.56,2.07-3.52,4.14-7.05,6.23-10.56,.47-.8,.49-1.49-.01-2.32-1.33-2.18-2.55-4.43-3.84-6.63-1.4-2.39-2.82-4.76-4.23-7.14-.24,.13-.35,.15-.39,.22-2.8,4.7-5.6,9.41-8.36,14.13-.17,.29-.18,.84-.01,1.13,2.75,4.79,5.54,9.55,8.55,14.73Zm-4.76,10.15c-3.5-5.95-6.87-11.69-10.39-17.69-3.48,6.09-6.76,11.82-10.12,17.69h20.51Zm30.01,.02c-3.39-5.98-6.62-11.66-10.04-17.68-3.59,6.09-6.95,11.8-10.41,17.68h20.45Z"/>
      <path class="cls-1" d="M104.39,87.72c-10.45-18.25-20.79-36.32-31.29-54.66-10.49,18.35-20.81,36.41-31.25,54.67-2.05-2.95-4-5.7-5.91-8.48-.95-1.38-1.92-2.75-2.72-4.21-.28-.5-.34-1.39-.09-1.88,5.98-11.26,12.01-22.5,18.05-33.73,4.94-9.19,9.91-18.36,14.86-27.54,1.87-3.47,3.72-6.96,5.62-10.41,.31-.56,.88-.98,1.34-1.47,.45,.5,1.03,.93,1.34,1.5,2.98,5.42,5.92,10.85,8.86,16.29,9.85,18.19,19.69,36.39,29.58,54.55,.72,1.33,.69,2.27-.2,3.51-2.77,3.84-5.4,7.79-8.2,11.87Z"/>
      <path class="cls-1" d="M23.32,137.23c16.58-29.39,32.99-58.46,49.4-87.53,.2-.02,.4-.04,.6-.07,16.42,29.09,32.84,58.17,49.44,87.59-2.65,0-4.77,0-6.9,0-2,0-4.01-.08-6,.04-1.28,.07-2-.36-2.63-1.48-3.48-6.2-7.03-12.35-10.57-18.52-5.76-10.03-11.54-20.05-17.31-30.07-1.74-3.02-3.5-6.03-5.25-9.03-.25-.43-.55-.84-.93-1.41-.3,.4-.53,.66-.7,.95-9.96,17.31-19.92,34.63-29.88,51.95-1.25,2.18-2.44,4.39-3.73,6.54-.27,.45-.86,.98-1.3,.99-4.6,.07-9.21,.04-14.22,.04Z"/>
      <path class="cls-1" d="M27.58,84.9c.37,.43,.67,.72,.89,1.05,2.39,3.49,4.74,7.01,7.17,10.47,.58,.83,.51,1.43,.05,2.26-5.37,9.56-10.7,19.13-16.05,28.7-1.65,2.96-3.32,5.91-4.96,8.88-.37,.67-.78,1.01-1.63,1-3.86-.05-7.72-.02-11.58-.02-1.44,0-1.82-.5-1.15-1.8,1.71-3.34,3.5-6.64,5.28-9.95,5.33-9.92,10.66-19.84,16.01-29.76,1.65-3.06,3.33-6.11,5-9.16,.29-.52,.6-1.02,.99-1.66Z"/>
      <path class="cls-1" d="M118.45,84.85c1.37,2.44,2.71,4.76,3.99,7.12,7.63,14.03,15.24,28.08,22.86,42.12,1.48,2.73,1.22,3.17-1.9,3.16-3.16,0-6.33-.08-9.48,.05-1.37,.05-2.05-.45-2.69-1.6-4.94-8.94-9.93-17.85-14.92-26.76-1.99-3.56-3.99-7.12-6.02-10.67-.37-.64-.38-1.07,.07-1.72,2.51-3.62,4.94-7.3,7.41-10.95,.15-.22,.36-.4,.68-.73Z"/>
      <path class="cls-1" d="M73.01,127.01c-3.01-5.17-5.8-9.94-8.55-14.73-.17-.29-.16-.84,.01-1.13,2.76-4.72,5.56-9.43,8.36-14.13,.04-.07,.15-.09,.39-.22,1.41,2.38,2.83,4.75,4.23,7.14,1.29,2.21,2.52,4.45,3.84,6.63,.5,.83,.49,1.52,.01,2.32-2.09,3.51-4.16,7.04-6.23,10.56-.63,1.06-1.24,2.13-2.07,3.56Z"/>
      <path class="cls-1" d="M68.26,137.16h-20.51c3.36-5.87,6.64-11.6,10.12-17.69,3.52,5.99,6.89,11.73,10.39,17.69Z"/>
      <path class="cls-1" d="M98.27,137.18h-20.45c3.46-5.88,6.83-11.59,10.41-17.68,3.42,6.01,6.64,11.7,10.04,17.68Z"/>
    </g>
  </g>
</svg>